<?xml version="1.0" encoding="utf-8"?>
<!-- Generator: Adobe Illustrator 24.0.2, SVG Export Plug-In . SVG Version: 6.00 Build 0)  -->
<svg version="1.1" id="Capa_1" xmlns="http://www.w3.org/2000/svg" xmlns:xlink="http://www.w3.org/1999/xlink" x="0px" y="0px"
	 viewBox="0 0 786 683" style="enable-background:new 0 0 786 683;" xml:space="preserve">
<style type="text/css">
	.st0{clip-path:url(#SVGID_2_);}
	.st1{fill:#BF3F9F;}
	.st2{fill:url(#SVGID_3_);}
</style>
<g>
	<title>Sin título-3</title>
	<g>
		<defs>
			<rect id="SVGID_1_" width="866" height="488"/>
		</defs>
		<clipPath id="SVGID_2_">
			<use xlink:href="#SVGID_1_"  style="overflow:visible;"/>
		</clipPath>
		<g class="st0">
			<path class="st1" d="M-445,256.5"/>
			
				<linearGradient id="SVGID_3_" gradientUnits="userSpaceOnUse" x1="-349.9223" y1="1084.425" x2="619.502" y2="1084.425" gradientTransform="matrix(1 0 0 -1 175.3 1266.6799)">
				<stop  offset="0" style="stop-color:#FF7948"/>
				<stop  offset="0.47" style="stop-color:#BB3CA4"/>
				<stop  offset="0.83" style="stop-color:#8C11E6"/>
				<stop  offset="1" style="stop-color:#7900FF"/>
			</linearGradient>
			<path class="st2" d="M-69.7-17.9C182.3-244.3,792.5-73.6,794.8-25c1,22-121.9,48.2-239.9,115.7c-26.7,15.3-43.1,26.7-60.4,39.3
				c-46.8,34.1-66.6,57.6-72,64.3c-10.3,12.6-10.2,14.7-23.2,32.9c-19.9,27.6-42.1,53.6-66.6,77.9c-31.3,31.3-66.1,59.6-103.7,84.3
				c-13.8,9.1-78.6,50.1-182.6,84.3c-51.2,16.8-76.8,25.2-90.7,22.9C-149.2,478.9-263.4,156.3-69.7-17.9z"/>
		</g>
	</g>
</g>
</svg>
