<?xml version="1.0" encoding="utf-8"?>
<!-- Generator: Adobe Illustrator 24.0.2, SVG Export Plug-In . SVG Version: 6.00 Build 0)  -->
<svg version="1.1" id="Capa_1" xmlns="http://www.w3.org/2000/svg" xmlns:xlink="http://www.w3.org/1999/xlink" x="0px" y="0px"
	 viewBox="0 0 351.91 236.47" style="enable-background:new 0 0 351.91 236.47;" xml:space="preserve">
<style type="text/css">
	.st0{clip-path:url(#SVGID_2_);fill:url(#SVGID_3_);}
</style>
<g>
	<defs>
		<rect id="SVGID_1_" x="-55.75" y="-132.24" width="407.67" height="368.71"/>
	</defs>
	<clipPath id="SVGID_2_">
		<use xlink:href="#SVGID_1_"  style="overflow:visible;"/>
	</clipPath>
	<linearGradient id="SVGID_3_" gradientUnits="userSpaceOnUse" x1="-53.1521" y1="108.2722" x2="518.4066" y2="108.2722">
		<stop  offset="0.1142" style="stop-color:#EF784D"/>
		<stop  offset="0.6269" style="stop-color:#DD705E"/>
	</linearGradient>
	<path class="st0" d="M10.3,237.56c33.6-26.97,80.14-62.42,151.94-110.51c26.56-17.79,39.86-26.65,59.71-38.85
		c48.68-29.92,73.99-40.84,134.91-83.56c99.08-69.47,115.11-96.74,133.16-88.41c44.43,20.51,49.51,232.88-80.24,338.33
		c-75.94,61.71-156.74-29.5-344.86,18.7c-54.03,13.84-112.12,36.69-117.8,25.5C-54.09,296.36-54.36,289.47,10.3,237.56z"/>
</g>
</svg>
